<svg xmlns="http://www.w3.org/2000/svg" viewBox="0 0 1920 1080" role="img" aria-label="NEVER MISS A DATE"><defs><linearGradient id="cg" x1="0" y1="0" x2="1" y2="1"><stop offset="0" stop-color="#0F3D2E"/><stop offset="1" stop-color="#0A2A1F"/></linearGradient></defs><rect width="1920" height="1080" fill="url(#cg)"/><text x="100" y="250" font-family="'JetBrains Mono',ui-monospace,SFMono-Regular,Menlo,Consolas,monospace" font-size="34" letter-spacing="14" fill="#D4A24C">SCENE 04</text><text x="100" y="430" font-family="Inter,'Segoe UI',system-ui,-apple-system,'Helvetica Neue',Arial,sans-serif" font-size="104" font-weight="800" letter-spacing="-2" fill="#FBFAF7">NEVER MISS A DATE</text><rect x="100" y="480" width="120" height="6" rx="3" fill="#D4A24C"/><text x="100" y="590" font-family="Inter,'Segoe UI',system-ui,-apple-system,'Helvetica Neue',Arial,sans-serif" font-size="44" fill="#E4BE7A">≤30 · ≤60 · ≤90 — automatic.</text><foreignObject x="100" y="650" width="820" height="300"><div xmlns="http://www.w3.org/1999/xhtml" style="font-family:Inter,'Segoe UI',system-ui,-apple-system,'Helvetica Neue',Arial,sans-serif;font-size:30px;line-height:1.5;color:#BFD6C8">Lease ends, rent dates and deadlines on one calendar; the portfolio as a timeline.</div></foreignObject><rect x="1260" y="300" width="420" height="330" rx="18" fill="none" stroke="#D4A24C" stroke-width="5"/><path d="M1260 380h420M1340 258v70M1600 258v70" stroke="#D4A24C" stroke-width="5"/><circle cx="1330" cy="440" r="11" fill="#D4A24C" opacity="1"/><circle cx="1330" cy="510" r="11" fill="#D4A24C" opacity="0.4"/><circle cx="1330" cy="580" r="11" fill="#D4A24C" opacity="0.4"/><circle cx="1400" cy="440" r="11" fill="#D4A24C" opacity="0.4"/><circle cx="1400" cy="510" r="11" fill="#D4A24C" opacity="0.4"/><circle cx="1400" cy="580" r="11" fill="#D4A24C" opacity="1"/><circle cx="1470" cy="440" r="11" fill="#D4A24C" opacity="0.4"/><circle cx="1470" cy="510" r="11" fill="#D4A24C" opacity="1"/><circle cx="1470" cy="580" r="11" fill="#D4A24C" opacity="0.4"/><circle cx="1540" cy="440" r="11" fill="#D4A24C" opacity="1"/><circle cx="1540" cy="510" r="11" fill="#D4A24C" opacity="0.4"/><circle cx="1540" cy="580" r="11" fill="#D4A24C" opacity="0.4"/><circle cx="1610" cy="440" r="11" fill="#D4A24C" opacity="0.4"/><circle cx="1610" cy="510" r="11" fill="#D4A24C" opacity="0.4"/><circle cx="1610" cy="580" r="11" fill="#D4A24C" opacity="1"/><text x="100" y="1010" font-family="'JetBrains Mono',ui-monospace,SFMono-Regular,Menlo,Consolas,monospace" font-size="24" letter-spacing="6" fill="#8FA99B">GAIA · GOM CHAMBERS × KEPLAR FLOW</text></svg>